<svg width="440" height="956" viewBox="0 0 440 956" fill="none" xmlns="http://www.w3.org/2000/svg">
<rect width="440" height="956" fill="white"/>
<rect width="438" height="953" transform="translate(0 2)" fill="url(#paint0_linear_1_2)"/>
<g clip-path="url(#clip0_1_2)">
<path d="M129.372 446.068C129.38 449.897 129.44 453.724 129.486 457.551H125.668C122.032 457.551 119 460.585 119 464.219C119 467.851 122.032 470.885 125.668 470.885H129.617C129.669 475.085 129.733 479.28 129.741 483.48C129.76 492.077 143.095 492.079 143.077 483.48C143.05 471.009 142.734 458.54 142.707 446.066C142.689 437.47 129.353 437.47 129.372 446.068Z" fill="white"/>
<path d="M277.029 430.442C277.301 438.918 277.538 447.396 277.844 455.868C238.945 455.001 200.146 460.257 161.258 458.119C161.032 449.51 160.75 440.901 160.344 432.294C159.941 423.733 146.604 423.693 147.009 432.294C148.079 455.001 148.467 477.72 148.491 500.452C148.5 509.05 161.835 509.052 161.828 500.452C161.816 490.79 161.721 481.129 161.555 471.471C200.53 473.576 239.417 468.289 278.404 469.218C278.858 478.775 279.458 488.324 280.363 497.858C281.168 506.343 294.509 506.42 293.698 497.858C291.573 475.439 291.082 452.938 290.364 430.442C290.092 421.866 276.755 421.839 277.029 430.442Z" fill="white"/>
<path d="M310.588 456.679C312.356 456.406 310.636 456.66 310.31 456.689C309.801 456.735 309.286 456.753 308.771 456.776C308.387 456.793 308.004 456.784 307.619 456.791C307.323 452.239 307.124 447.681 307.175 443.107C307.272 434.504 293.937 434.512 293.84 443.107C293.675 457.617 295.91 471.967 296.433 486.446C296.741 495.02 310.08 495.05 309.768 486.446C309.57 480.967 309.128 475.508 308.661 470.049C310.484 469.964 312.297 469.822 314.132 469.54C317.732 468.984 319.668 464.531 318.79 461.337C317.744 457.532 314.179 456.127 310.588 456.679Z" fill="white"/>
</g>
<path d="M135.455 537.25C135.295 536.697 135.072 536.208 134.784 535.784C134.496 535.352 134.144 534.989 133.727 534.693C133.318 534.39 132.848 534.159 132.318 534C131.795 533.841 131.216 533.761 130.58 533.761C129.39 533.761 128.345 534.057 127.443 534.648C126.549 535.239 125.852 536.098 125.352 537.227C124.852 538.348 124.602 539.72 124.602 541.341C124.602 542.962 124.848 544.341 125.341 545.477C125.833 546.614 126.53 547.481 127.432 548.08C128.333 548.67 129.398 548.966 130.625 548.966C131.739 548.966 132.689 548.769 133.477 548.375C134.273 547.973 134.879 547.409 135.295 546.682C135.72 545.955 135.932 545.095 135.932 544.102L136.932 544.25H130.932V540.545H140.67V543.477C140.67 545.523 140.239 547.28 139.375 548.75C138.511 550.212 137.322 551.341 135.807 552.136C134.292 552.924 132.557 553.318 130.602 553.318C128.42 553.318 126.504 552.837 124.852 551.875C123.201 550.905 121.913 549.53 120.989 547.75C120.072 545.962 119.614 543.841 119.614 541.386C119.614 539.5 119.886 537.818 120.432 536.341C120.985 534.856 121.758 533.598 122.75 532.568C123.742 531.538 124.898 530.754 126.216 530.216C127.534 529.678 128.962 529.409 130.5 529.409C131.818 529.409 133.045 529.602 134.182 529.989C135.318 530.367 136.326 530.905 137.205 531.602C138.091 532.299 138.814 533.129 139.375 534.091C139.936 535.045 140.295 536.098 140.455 537.25H135.455ZM147.264 559.545C146.651 559.545 146.075 559.496 145.537 559.398C145.007 559.307 144.567 559.189 144.219 559.045L145.31 555.432C145.878 555.606 146.389 555.701 146.844 555.716C147.306 555.731 147.704 555.625 148.037 555.398C148.378 555.17 148.654 554.784 148.866 554.239L149.151 553.5L142.889 535.545H147.98L151.594 548.364H151.776L155.423 535.545H160.548L153.764 554.886C153.438 555.826 152.995 556.644 152.435 557.341C151.882 558.045 151.181 558.587 150.332 558.966C149.484 559.352 148.461 559.545 147.264 559.545ZM163.026 553V535.545H167.639V538.625H167.844C168.207 537.602 168.813 536.795 169.662 536.205C170.51 535.614 171.526 535.318 172.707 535.318C173.904 535.318 174.923 535.617 175.764 536.216C176.605 536.807 177.166 537.61 177.446 538.625H177.628C177.984 537.625 178.628 536.826 179.56 536.227C180.499 535.621 181.609 535.318 182.889 535.318C184.518 535.318 185.84 535.837 186.855 536.875C187.878 537.905 188.389 539.367 188.389 541.261V553H183.56V542.216C183.56 541.246 183.302 540.519 182.787 540.034C182.272 539.549 181.628 539.307 180.855 539.307C179.976 539.307 179.291 539.587 178.798 540.148C178.306 540.701 178.06 541.432 178.06 542.341V553H173.366V542.114C173.366 541.258 173.12 540.576 172.628 540.068C172.143 539.561 171.503 539.307 170.707 539.307C170.17 539.307 169.685 539.443 169.253 539.716C168.829 539.981 168.491 540.356 168.241 540.841C167.991 541.318 167.866 541.879 167.866 542.523V553H163.026ZM199.71 553V529.727H208.892C210.657 529.727 212.161 530.064 213.403 530.739C214.646 531.405 215.593 532.333 216.244 533.523C216.903 534.705 217.233 536.068 217.233 537.614C217.233 539.159 216.9 540.523 216.233 541.705C215.566 542.886 214.6 543.807 213.335 544.466C212.078 545.125 210.555 545.455 208.767 545.455H202.915V541.511H207.972C208.919 541.511 209.699 541.348 210.312 541.023C210.934 540.689 211.396 540.231 211.699 539.648C212.009 539.057 212.165 538.379 212.165 537.614C212.165 536.841 212.009 536.167 211.699 535.591C211.396 535.008 210.934 534.557 210.312 534.239C209.691 533.913 208.903 533.75 207.949 533.75H204.631V553H199.71ZM224.847 553.33C223.733 553.33 222.741 553.136 221.869 552.75C220.998 552.356 220.309 551.777 219.801 551.011C219.301 550.239 219.051 549.277 219.051 548.125C219.051 547.155 219.229 546.341 219.585 545.682C219.941 545.023 220.426 544.492 221.04 544.091C221.653 543.689 222.35 543.386 223.131 543.182C223.919 542.977 224.744 542.833 225.608 542.75C226.623 542.644 227.441 542.545 228.062 542.455C228.684 542.356 229.134 542.212 229.415 542.023C229.695 541.833 229.835 541.553 229.835 541.182V541.114C229.835 540.394 229.608 539.837 229.153 539.443C228.706 539.049 228.07 538.852 227.244 538.852C226.373 538.852 225.68 539.045 225.165 539.432C224.65 539.811 224.309 540.288 224.142 540.864L219.665 540.5C219.892 539.439 220.339 538.523 221.006 537.75C221.672 536.97 222.532 536.371 223.585 535.955C224.646 535.53 225.873 535.318 227.267 535.318C228.237 535.318 229.165 535.432 230.051 535.659C230.945 535.886 231.737 536.239 232.426 536.716C233.123 537.193 233.672 537.807 234.074 538.557C234.475 539.299 234.676 540.189 234.676 541.227V553H230.085V550.58H229.949C229.669 551.125 229.294 551.606 228.824 552.023C228.354 552.432 227.79 552.754 227.131 552.989C226.472 553.216 225.71 553.33 224.847 553.33ZM226.233 549.989C226.945 549.989 227.574 549.848 228.119 549.568C228.665 549.28 229.093 548.894 229.403 548.409C229.714 547.924 229.869 547.375 229.869 546.761V544.909C229.718 545.008 229.509 545.098 229.244 545.182C228.987 545.258 228.695 545.33 228.369 545.398C228.044 545.458 227.718 545.515 227.392 545.568C227.066 545.614 226.771 545.655 226.506 545.693C225.938 545.777 225.441 545.909 225.017 546.091C224.593 546.273 224.263 546.519 224.028 546.83C223.794 547.133 223.676 547.511 223.676 547.966C223.676 548.625 223.915 549.129 224.392 549.477C224.877 549.818 225.491 549.989 226.233 549.989ZM238.432 553V535.545H243.125V538.591H243.307C243.625 537.508 244.159 536.689 244.909 536.136C245.659 535.576 246.523 535.295 247.5 535.295C247.742 535.295 248.004 535.311 248.284 535.341C248.564 535.371 248.811 535.413 249.023 535.466V539.761C248.795 539.693 248.481 539.633 248.08 539.58C247.678 539.527 247.311 539.5 246.977 539.5C246.265 539.5 245.629 539.655 245.068 539.966C244.515 540.269 244.076 540.693 243.75 541.239C243.432 541.784 243.273 542.413 243.273 543.125V553H238.432ZM261.685 535.545V539.182H251.173V535.545H261.685ZM253.56 531.364H258.401V547.636C258.401 548.083 258.469 548.432 258.605 548.682C258.741 548.924 258.931 549.095 259.173 549.193C259.423 549.292 259.711 549.341 260.037 549.341C260.264 549.341 260.491 549.322 260.719 549.284C260.946 549.239 261.12 549.205 261.241 549.182L262.003 552.784C261.76 552.86 261.42 552.947 260.98 553.045C260.541 553.152 260.007 553.216 259.378 553.239C258.211 553.284 257.188 553.129 256.31 552.773C255.438 552.417 254.76 551.864 254.276 551.114C253.791 550.364 253.552 549.417 253.56 548.273V531.364ZM269.679 542.909V553H264.838V535.545H269.452V538.625H269.656C270.043 537.61 270.69 536.807 271.599 536.216C272.509 535.617 273.611 535.318 274.906 535.318C276.118 535.318 277.175 535.583 278.077 536.114C278.978 536.644 279.679 537.402 280.179 538.386C280.679 539.364 280.929 540.53 280.929 541.886V553H276.088V542.75C276.096 541.682 275.823 540.848 275.27 540.25C274.717 539.644 273.955 539.341 272.986 539.341C272.334 539.341 271.759 539.481 271.259 539.761C270.766 540.042 270.38 540.451 270.099 540.989C269.827 541.519 269.687 542.159 269.679 542.909ZM292.699 553.341C290.903 553.341 289.358 552.977 288.062 552.25C286.775 551.515 285.782 550.477 285.085 549.136C284.388 547.788 284.04 546.193 284.04 544.352C284.04 542.557 284.388 540.981 285.085 539.625C285.782 538.269 286.763 537.212 288.028 536.455C289.301 535.697 290.794 535.318 292.506 535.318C293.657 535.318 294.729 535.504 295.722 535.875C296.722 536.239 297.593 536.788 298.335 537.523C299.085 538.258 299.669 539.182 300.085 540.295C300.502 541.402 300.71 542.697 300.71 544.182V545.511H285.972V542.511H296.153C296.153 541.814 296.002 541.197 295.699 540.659C295.396 540.121 294.975 539.701 294.438 539.398C293.907 539.087 293.29 538.932 292.585 538.932C291.85 538.932 291.199 539.102 290.631 539.443C290.07 539.777 289.631 540.227 289.312 540.795C288.994 541.356 288.831 541.981 288.824 542.67V545.523C288.824 546.386 288.983 547.133 289.301 547.761C289.627 548.39 290.085 548.875 290.676 549.216C291.267 549.557 291.968 549.727 292.778 549.727C293.316 549.727 293.809 549.652 294.256 549.5C294.703 549.348 295.085 549.121 295.403 548.818C295.722 548.515 295.964 548.144 296.131 547.705L300.608 548C300.381 549.076 299.915 550.015 299.21 550.818C298.513 551.614 297.612 552.235 296.506 552.682C295.407 553.121 294.138 553.341 292.699 553.341ZM303.869 553V535.545H308.562V538.591H308.744C309.063 537.508 309.597 536.689 310.347 536.136C311.097 535.576 311.96 535.295 312.938 535.295C313.18 535.295 313.441 535.311 313.722 535.341C314.002 535.371 314.248 535.413 314.46 535.466V539.761C314.233 539.693 313.919 539.633 313.517 539.58C313.116 539.527 312.748 539.5 312.415 539.5C311.703 539.5 311.066 539.655 310.506 539.966C309.953 540.269 309.513 540.693 309.188 541.239C308.869 541.784 308.71 542.413 308.71 543.125V553H303.869Z" fill="white"/>
<defs>
<linearGradient id="paint0_linear_1_2" x1="219" y1="0" x2="219" y2="953" gradientUnits="userSpaceOnUse">
<stop offset="0.09" stop-color="#90CAF9"/>
<stop offset="0.92" stop-color="#3997E3"/>
</linearGradient>
<clipPath id="clip0_1_2">
<rect width="200" height="200" fill="white" transform="translate(119 367)"/>
</clipPath>
</defs>
</svg>
